<?xml version="1.0" standalone="no"?>
<!DOCTYPE svg PUBLIC "-//W3C//DTD SVG 20010904//EN"
 "http://www.w3.org/TR/2001/REC-SVG-20010904/DTD/svg10.dtd">
<svg version="1.0" xmlns="http://www.w3.org/2000/svg"
 width="78.000000pt" height="114.000000pt" viewBox="0 0 78.000000 114.000000"
 preserveAspectRatio="xMidYMid meet">
<metadata>
Created by potrace 1.16, written by Peter Selinger 2001-2019
</metadata>
<g transform="translate(0.000000,114.000000) scale(0.100000,-0.100000)"
fill="#000000" stroke="none">
<path d="M409 1101 c-16 -16 -29 -40 -29 -53 0 -22 -3 -23 -84 -23 -78 -1 -86
1 -97 22 -40 74 -167 23 -185 -74 -7 -38 14 -78 45 -88 19 -6 19 -8 4 -43 -21
-51 -14 -152 14 -190 21 -29 21 -29 2 -87 -36 -109 -46 -218 -26 -293 29 -112
92 -172 179 -172 42 0 49 -3 63 -29 20 -40 53 -61 94 -61 46 0 99 55 103 108
3 35 6 38 58 56 l56 19 28 -26 c34 -32 55 -34 88 -7 58 45 58 160 -1 252 -22
35 -28 56 -28 101 0 95 -53 145 -121 113 l-32 -16 14 28 c35 67 28 153 -17
209 -35 44 -64 106 -51 110 28 9 45 31 50 65 6 33 3 41 -29 73 -43 43 -60 44
-98 6z m83 -18 c38 -36 34 -91 -7 -107 -13 -5 -13 -3 1 19 19 29 15 64 -8 79
-22 13 -47 0 -64 -32 -12 -25 -26 -19 -17 6 8 23 44 62 57 62 5 0 23 -12 38
-27z m-320 -40 c21 -19 23 -34 7 -50 -9 -9 -15 -8 -26 3 -20 20 -49 18 -73 -6
-25 -25 -26 -58 -2 -77 16 -13 16 -14 -3 -11 -10 2 -26 15 -34 29 -38 68 74
164 131 112z m304 -6 c2 -7 -2 -26 -10 -42 -12 -23 -16 -26 -21 -12 -3 9 -7
24 -10 33 -10 30 29 50 41 21z m-72 -51 c35 -21 86 -74 86 -91 0 -3 -8 -5 -18
-5 -11 0 -21 11 -27 32 -12 40 -56 68 -82 52 -32 -20 -40 -62 -16 -86 21 -20
21 -21 2 -52 -23 -37 -25 -112 -5 -161 19 -46 56 -63 99 -47 42 16 55 -4 24
-36 -85 -92 -234 -78 -334 31 -83 90 -77 212 16 321 53 62 184 84 255 42z
m-268 -7 c10 -17 -28 -50 -46 -39 -12 7 -11 12 4 29 21 24 32 26 42 10z m278
-25 c9 -3 16 -13 16 -21 0 -13 -3 -13 -15 -3 -8 7 -26 10 -40 8 -24 -5 -32 2
-18 15 8 9 36 9 57 1z m-34 -49 c0 -8 -4 -15 -10 -15 -5 0 -10 7 -10 15 0 8 5
15 10 15 6 0 10 -7 10 -15z m96 -32 c14 -5 8 -9 -22 -18 -52 -14 -55 -37 -9
-81 39 -36 41 -58 11 -97 -45 -58 -115 91 -77 161 18 34 61 49 97 35z m74
-143 c0 -64 -7 -80 -35 -80 -22 0 -24 3 -20 51 3 49 28 94 46 83 5 -3 9 -27 9
-54z m89 -129 c22 -22 43 -85 34 -107 -3 -8 -16 -14 -28 -14 -13 0 -27 -4 -30
-10 -12 -19 -25 -10 -45 30 -25 50 -25 75 0 100 25 25 45 25 69 1z m-114 -12
c4 -11 5 -23 2 -26 -9 -8 20 -94 39 -114 14 -16 15 -23 6 -45 -18 -37 -15
-135 4 -162 9 -13 14 -24 13 -26 -54 -35 -95 -32 -108 7 -13 39 -66 92 -100
100 -60 15 -114 -56 -115 -150 -1 -48 -3 -53 -24 -53 -115 0 -195 140 -171
300 8 58 38 170 44 170 2 0 26 -15 54 -34 109 -74 236 -67 306 17 35 42 41 44
50 16z m180 -193 c53 -87 37 -226 -26 -226 -26 0 -89 86 -91 124 -4 69 4 112
25 134 31 33 57 24 92 -32z m-293 -116 c36 -27 58 -80 58 -135 0 -40 -5 -52
-34 -81 -19 -19 -42 -34 -52 -34 -26 0 -74 50 -74 76 0 13 -5 26 -11 30 -7 4
-10 27 -7 60 8 90 63 129 120 84z M171 894 c-41 -52 -15 -144 40 -144 36 0 79
53 79 98 0 71 -76 100 -119 46z m97 -12 c19 -24 14 -37 -6 -19 -22 20 -53 22
-70 5 -6 -6 -15 -8 -19 -4 -5 4 3 16 16 27 26 21 58 18 79 -9z m-50 -54 c-7
-19 -38 -22 -38 -4 0 10 9 16 21 16 12 0 19 -5 17 -12z M173 503 c-83 -16 -91
-180 -10 -208 81 -28 164 116 107 188 -21 27 -41 31 -97 20z m78 -29 c7 -9 14
-34 14 -55 0 -66 -81 -126 -115 -84 -18 21 -24 89 -10 114 20 39 87 54 111 25z"/>
</g>
</svg>
